<?xml version="1.0" encoding="UTF-8" standalone="no"?>
<!-- Created with Inkscape (http://www.inkscape.org/) -->

<svg
   xmlns:dc="http://purl.org/dc/elements/1.1/"
   xmlns:cc="http://creativecommons.org/ns#"
   xmlns:rdf="http://www.w3.org/1999/02/22-rdf-syntax-ns#"
   xmlns:svg="http://www.w3.org/2000/svg"
   xmlns="http://www.w3.org/2000/svg"
   xmlns:sodipodi="http://sodipodi.sourceforge.net/DTD/sodipodi-0.dtd"
   xmlns:inkscape="http://www.inkscape.org/namespaces/inkscape"
   width="210mm"
   height="297mm"
   viewBox="0 0 210 297"
   version="1.1"
   id="svg8"
   inkscape:export-filename="C:\Users\gabri\OneDrive\Área de Trabalho\bitmap2.png"
   inkscape:export-xdpi="195.64301"
   inkscape:export-ydpi="195.64301"
   inkscape:version="0.92.3 (2405546, 2018-03-11)"
   sodipodi:docname="logo.svg">
  <defs
     id="defs2" />
  <sodipodi:namedview
     id="base"
     pagecolor="#ffffff"
     bordercolor="#666666"
     borderopacity="1.0"
     inkscape:pageopacity="0.0"
     inkscape:pageshadow="2"
     inkscape:zoom="0.49497475"
     inkscape:cx="152.58566"
     inkscape:cy="590.81214"
     inkscape:document-units="mm"
     inkscape:current-layer="layer1"
     showgrid="false"
     showguides="true"
     inkscape:guide-bbox="true"
     inkscape:lockguides="true"
     inkscape:window-width="1920"
     inkscape:window-height="1017"
     inkscape:window-x="-8"
     inkscape:window-y="-8"
     inkscape:window-maximized="1">
    <sodipodi:guide
       position="110.55803,249.2753"
       orientation="1,0"
       id="guide1024"
       inkscape:locked="true" />
  </sodipodi:namedview>
  <metadata
     id="metadata5">
    <rdf:RDF>
      <cc:Work
         rdf:about="">
        <dc:format>image/svg+xml</dc:format>
        <dc:type
           rdf:resource="http://purl.org/dc/dcmitype/StillImage" />
        <dc:title></dc:title>
      </cc:Work>
    </rdf:RDF>
  </metadata>
  <g
     inkscape:label="Camada 1"
     inkscape:groupmode="layer"
     id="layer1">
    <rect
       style="opacity:1;fill:#37abc8;fill-opacity:1;stroke:none;stroke-width:2.79714465;stroke-linecap:round;stroke-linejoin:miter;stroke-miterlimit:4;stroke-dasharray:none;stroke-opacity:1;paint-order:stroke markers fill"
       id="rect930"
       width="89.991432"
       height="52.566227"
       x="-0.83001423"
       y="29.637802"
       inkscape:export-xdpi="195"
       inkscape:export-ydpi="195" />
    <path
       style="fill:#37abc8;stroke:#ffffff;stroke-width:2.16499996;stroke-linecap:butt;stroke-linejoin:miter;stroke-miterlimit:4;stroke-dasharray:none;stroke-opacity:1"
       d="m 14.340742,43.837265 c 0,0 9.028476,5.957458 4.950305,23.685269"
       id="path896"
       inkscape:connector-curvature="0"
       sodipodi:nodetypes="cc"
       inkscape:export-xdpi="195"
       inkscape:export-ydpi="195" />
    <path
       style="fill:#37abc8;stroke:#ffffff;stroke-width:2.16499996;stroke-linecap:butt;stroke-linejoin:miter;stroke-miterlimit:4;stroke-dasharray:none;stroke-opacity:1"
       d="m 20.038921,55.710309 c 0,0 3.447571,-8.013164 12.106291,-9.749501"
       id="path898"
       inkscape:connector-curvature="0"
       sodipodi:nodetypes="cc"
       inkscape:export-xdpi="195"
       inkscape:export-ydpi="195" />
    <path
       style="fill:#37abc8;stroke:#ffffff;stroke-width:2.16499996;stroke-linecap:butt;stroke-linejoin:miter;stroke-miterlimit:4;stroke-dasharray:none;stroke-opacity:1"
       d="m 33.019863,54.670001 c -1.169304,-1.971113 -7.506368,-3.418961 -8.70908,5.334117 -1.202713,8.753078 6.34765,6.34765 6.34765,6.34765 2.204974,-0.634765 5.324218,-5.389658 2.36143,-11.681767 z"
       id="path900"
       inkscape:connector-curvature="0"
       sodipodi:nodetypes="cscc"
       inkscape:export-xdpi="195"
       inkscape:export-ydpi="195" />
    <path
       style="fill:#37abc8;stroke:#ffffff;stroke-width:2.16499996;stroke-linecap:butt;stroke-linejoin:miter;stroke-miterlimit:4;stroke-dasharray:none;stroke-opacity:1"
       d="m 34.066119,61.373874 c 0,0 0.103858,5.129384 6.265948,4.652734"
       id="path902"
       inkscape:connector-curvature="0"
       sodipodi:nodetypes="cc"
       inkscape:export-xdpi="195"
       inkscape:export-ydpi="195" />
    <path
       style="fill:#37abc8;stroke:#ffffff;stroke-width:2.16499996;stroke-linecap:butt;stroke-linejoin:miter;stroke-miterlimit:4;stroke-dasharray:none;stroke-opacity:1"
       d="m 46.933839,54.380714 c 0,0 -8.185131,1.536798 -6.080381,4.57699 0.634764,1.703842 5.044712,-1.102486 7.182868,2.906557 2.071339,6.214017 -6.250395,4.162348 -6.250395,4.162348"
       id="path904"
       inkscape:connector-curvature="0"
       sodipodi:nodetypes="cccc"
       inkscape:export-xdpi="195"
       inkscape:export-ydpi="195" />
    <path
       style="fill:#37abc8;stroke:#ffffff;stroke-width:2.16499996;stroke-linecap:butt;stroke-linejoin:miter;stroke-miterlimit:4;stroke-dasharray:none;stroke-opacity:1"
       d="m 51.991271,67.442578 c 0,0 -0.359722,-19.264305 3.231052,-23.280301"
       id="path906"
       inkscape:connector-curvature="0"
       inkscape:export-xdpi="195"
       inkscape:export-ydpi="195" />
    <path
       style="fill:#37abc8;stroke:#ffffff;stroke-width:2.16499996;stroke-linecap:butt;stroke-linejoin:miter;stroke-miterlimit:4;stroke-dasharray:none;stroke-opacity:1"
       d="m 48.553384,51.967734 c 0,0 5.458336,-0.500755 7.834525,-0.106566"
       id="path908"
       inkscape:connector-curvature="0"
       sodipodi:nodetypes="cc"
       inkscape:export-xdpi="195"
       inkscape:export-ydpi="195" />
    <path
       style="fill:#37abc8;stroke:#ffffff;stroke-width:2.16499996;stroke-linecap:butt;stroke-linejoin:miter;stroke-miterlimit:4;stroke-dasharray:none;stroke-opacity:1"
       d="m 64.448442,54.422263 c -1.169304,-1.971113 -7.506368,-3.418961 -8.70908,5.334117 -1.202713,8.753077 6.34765,6.347649 6.34765,6.347649 2.204974,-0.634765 5.324218,-5.389657 2.36143,-11.681766 z"
       id="path900-1"
       inkscape:connector-curvature="0"
       sodipodi:nodetypes="cscc"
       inkscape:export-xdpi="195"
       inkscape:export-ydpi="195" />
    <path
       style="fill:#37abc8;stroke:#ffffff;stroke-width:2.16499996;stroke-linecap:butt;stroke-linejoin:miter;stroke-miterlimit:4;stroke-dasharray:none;stroke-opacity:1"
       d="m 65.494698,61.126136 c 0,0 0.103858,5.129383 6.265948,4.652733"
       id="path902-7"
       inkscape:connector-curvature="0"
       sodipodi:nodetypes="cc"
       inkscape:export-xdpi="195"
       inkscape:export-ydpi="195" />
    <circle
       style="opacity:1;fill:#37abc8;fill-opacity:1;stroke:#ffffff;stroke-width:2.16499996;stroke-linecap:round;stroke-linejoin:miter;stroke-miterlimit:4;stroke-dasharray:none;stroke-opacity:1;paint-order:stroke markers fill"
       id="path932"
       cx="75.888428"
       cy="65.622154"
       r="1.5283448"
       inkscape:export-xdpi="195"
       inkscape:export-ydpi="195" />
    <rect
       style="opacity:1;fill:none;fill-opacity:1;stroke:#ffffff;stroke-width:3.93207169;stroke-linecap:round;stroke-linejoin:miter;stroke-miterlimit:4;stroke-dasharray:none;stroke-opacity:1;paint-order:stroke markers fill"
       id="rect953"
       width="80.952843"
       height="42.466038"
       x="3.6892805"
       y="34.687897"
       inkscape:export-xdpi="195"
       inkscape:export-ydpi="195" />
    <rect
       style="opacity:1;fill:#37abc8;fill-opacity:1;stroke:none;stroke-width:3.21364546;stroke-linecap:round;stroke-linejoin:miter;stroke-miterlimit:4;stroke-dasharray:none;stroke-opacity:1;paint-order:stroke markers fill"
       id="rect930-6"
       width="89.991432"
       height="69.386162"
       x="96.178398"
       y="29.001118"
       inkscape:export-xdpi="195"
       inkscape:export-ydpi="195" />
    <path
       style="fill:#37abc8;stroke:#ffffff;stroke-width:2.16499996;stroke-linecap:butt;stroke-linejoin:miter;stroke-miterlimit:4;stroke-dasharray:none;stroke-opacity:1"
       d="m 111.34915,43.578552 c 0,0 9.02847,5.957458 4.9503,23.685269"
       id="path896-1"
       inkscape:connector-curvature="0"
       sodipodi:nodetypes="cc"
       inkscape:export-xdpi="195"
       inkscape:export-ydpi="195" />
    <path
       style="fill:#37abc8;stroke:#ffffff;stroke-width:2.16499996;stroke-linecap:butt;stroke-linejoin:miter;stroke-miterlimit:4;stroke-dasharray:none;stroke-opacity:1"
       d="m 117.04733,55.451596 c 0,0 3.44757,-8.013164 12.10629,-9.749501"
       id="path898-3"
       inkscape:connector-curvature="0"
       sodipodi:nodetypes="cc"
       inkscape:export-xdpi="195"
       inkscape:export-ydpi="195" />
    <path
       style="fill:#37abc8;stroke:#ffffff;stroke-width:2.16499996;stroke-linecap:butt;stroke-linejoin:miter;stroke-miterlimit:4;stroke-dasharray:none;stroke-opacity:1"
       d="m 130.02827,54.411288 c -1.1693,-1.971113 -7.50637,-3.418961 -8.70908,5.334117 -1.20271,8.753079 6.34765,6.347651 6.34765,6.347651 2.20497,-0.634765 5.32422,-5.389658 2.36143,-11.681768 z"
       id="path900-0"
       inkscape:connector-curvature="0"
       sodipodi:nodetypes="cscc"
       inkscape:export-xdpi="195"
       inkscape:export-ydpi="195" />
    <path
       style="fill:#37abc8;stroke:#ffffff;stroke-width:2.16499996;stroke-linecap:butt;stroke-linejoin:miter;stroke-miterlimit:4;stroke-dasharray:none;stroke-opacity:1"
       d="m 131.07453,61.115161 c 0,0 0.10385,5.129385 6.26594,4.652735"
       id="path902-9"
       inkscape:connector-curvature="0"
       sodipodi:nodetypes="cc"
       inkscape:export-xdpi="195"
       inkscape:export-ydpi="195" />
    <path
       style="fill:#37abc8;stroke:#ffffff;stroke-width:2.16499996;stroke-linecap:butt;stroke-linejoin:miter;stroke-miterlimit:4;stroke-dasharray:none;stroke-opacity:1"
       d="m 143.94225,54.122001 c 0,0 -8.18514,1.536798 -6.08039,4.576991 0.63477,1.703842 5.04472,-1.102487 7.18287,2.906556 2.07134,6.214017 -6.25039,4.162348 -6.25039,4.162348"
       id="path904-8"
       inkscape:connector-curvature="0"
       sodipodi:nodetypes="cccc"
       inkscape:export-xdpi="195"
       inkscape:export-ydpi="195" />
    <path
       style="fill:#37abc8;stroke:#ffffff;stroke-width:2.16499996;stroke-linecap:butt;stroke-linejoin:miter;stroke-miterlimit:4;stroke-dasharray:none;stroke-opacity:1"
       d="m 148.99968,67.183864 c 0,0 -0.35972,-19.264304 3.23105,-23.2803"
       id="path906-1"
       inkscape:connector-curvature="0"
       inkscape:export-xdpi="195"
       inkscape:export-ydpi="195" />
    <path
       style="fill:#37abc8;stroke:#ffffff;stroke-width:2.16499996;stroke-linecap:butt;stroke-linejoin:miter;stroke-miterlimit:4;stroke-dasharray:none;stroke-opacity:1"
       d="m 145.56179,51.709021 c 0,0 5.45834,-0.500755 7.83453,-0.106566"
       id="path908-9"
       inkscape:connector-curvature="0"
       sodipodi:nodetypes="cc"
       inkscape:export-xdpi="195"
       inkscape:export-ydpi="195" />
    <path
       style="fill:#37abc8;stroke:#ffffff;stroke-width:2.16499996;stroke-linecap:butt;stroke-linejoin:miter;stroke-miterlimit:4;stroke-dasharray:none;stroke-opacity:1"
       d="m 161.45685,54.16355 c -1.1693,-1.971113 -7.50637,-3.418961 -8.70908,5.334118 -1.20271,8.753076 6.34765,6.347648 6.34765,6.347648 2.20497,-0.634765 5.32422,-5.389658 2.36143,-11.681766 z"
       id="path900-1-8"
       inkscape:connector-curvature="0"
       sodipodi:nodetypes="cscc"
       inkscape:export-xdpi="195"
       inkscape:export-ydpi="195" />
    <path
       style="fill:#37abc8;stroke:#ffffff;stroke-width:2.16499996;stroke-linecap:butt;stroke-linejoin:miter;stroke-miterlimit:4;stroke-dasharray:none;stroke-opacity:1"
       d="m 162.50311,60.867424 c 0,0 0.10385,5.129382 6.26594,4.652732"
       id="path902-7-6"
       inkscape:connector-curvature="0"
       sodipodi:nodetypes="cc"
       inkscape:export-xdpi="195"
       inkscape:export-ydpi="195" />
    <circle
       style="opacity:1;fill:#37abc8;fill-opacity:1;stroke:#ffffff;stroke-width:2.16499996;stroke-linecap:round;stroke-linejoin:miter;stroke-miterlimit:4;stroke-dasharray:none;stroke-opacity:1;paint-order:stroke markers fill"
       id="path932-6"
       cx="172.89684"
       cy="65.363441"
       r="1.5283448"
       inkscape:export-xdpi="195"
       inkscape:export-ydpi="195" />
    <rect
       style="opacity:1;fill:none;fill-opacity:1;stroke:#ffffff;stroke-width:4.58667707;stroke-linecap:round;stroke-linejoin:miter;stroke-miterlimit:4;stroke-dasharray:none;stroke-opacity:1;paint-order:stroke markers fill"
       id="rect953-7"
       width="80.298233"
       height="58.253399"
       x="101.02499"
       y="34.567497"
       inkscape:export-xdpi="195"
       inkscape:export-ydpi="195" />
    <g
       aria-label="Estágios"
       style="font-style:normal;font-weight:normal;font-size:10.58333302px;line-height:1.25;font-family:sans-serif;letter-spacing:0px;word-spacing:0px;fill:#000000;fill-opacity:1;stroke:none;stroke-width:0.26458332"
       id="text1005"
       transform="matrix(0.66248737,0,0,0.66248737,46.115143,26.929844)"
       inkscape:export-xdpi="195"
       inkscape:export-ydpi="195">
      <path
         d="m 120.21285,71.107518 v 2.201333 h -5.06307 v 2.878667 h 3.87773 v 2.116667 h -3.87773 v 2.937933 h 5.06307 v 2.201333 h -7.94174 V 71.107518 Z"
         style="font-style:normal;font-variant:normal;font-weight:900;font-stretch:normal;font-size:16.93333244px;font-family:Lato;-inkscape-font-specification:'Lato Heavy';text-align:center;letter-spacing:0px;text-anchor:middle;fill:#ffffff;stroke-width:0.26458332"
         id="path1007"
         inkscape:connector-curvature="0" />
      <path
         d="m 127.19705,76.585451 q -0.1016,0.160867 -0.22013,0.2286 -0.11007,0.06773 -0.28787,0.06773 -0.18627,0 -0.37253,-0.0762 -0.18627,-0.08467 -0.4064,-0.1778 -0.21167,-0.09313 -0.4826,-0.169334 -0.27094,-0.08467 -0.61807,-0.08467 -0.49953,0 -0.77047,0.194733 -0.26246,0.186267 -0.26246,0.524933 0,0.245534 0.16933,0.4064 0.1778,0.160867 0.46567,0.287867 0.28786,0.118533 0.65193,0.2286 0.36407,0.110067 0.74507,0.245533 0.381,0.135467 0.74506,0.321734 0.36407,0.1778 0.65194,0.448733 0.28786,0.262466 0.4572,0.643466 0.1778,0.381 0.1778,0.9144 0,0.651934 -0.23707,1.202267 -0.23707,0.550333 -0.7112,0.948267 -0.46567,0.397933 -1.15993,0.618066 -0.6858,0.220134 -1.58327,0.220134 -0.44873,0 -0.89747,-0.08467 -0.44873,-0.08467 -0.87206,-0.2286 -0.41487,-0.143933 -0.77047,-0.338667 -0.3556,-0.2032 -0.6096,-0.4318 l 0.6096,-0.9652 q 0.11007,-0.169333 0.26247,-0.262466 0.1524,-0.1016 0.39793,-0.1016 0.2286,0 0.4064,0.1016 0.18627,0.1016 0.39793,0.220133 0.21167,0.118533 0.49107,0.220133 0.28787,0.1016 0.71967,0.1016 0.3048,0 0.51646,-0.05927 0.21167,-0.06773 0.33867,-0.1778 0.127,-0.110067 0.18627,-0.245534 0.0593,-0.135466 0.0593,-0.2794 0,-0.262466 -0.1778,-0.4318 -0.1778,-0.169333 -0.46566,-0.287866 -0.28787,-0.127 -0.6604,-0.2286 -0.36407,-0.110067 -0.74507,-0.245534 -0.381,-0.135466 -0.75353,-0.321733 -0.36407,-0.194733 -0.65194,-0.4826 -0.28786,-0.296333 -0.46566,-0.719666 -0.1778,-0.423334 -0.1778,-1.024467 0,-0.5588 0.21166,-1.058333 0.22014,-0.508 0.65194,-0.889 0.4318,-0.381 1.08373,-0.601134 0.65193,-0.2286 1.524,-0.2286 0.47413,0 0.9144,0.08467 0.44873,0.08467 0.8382,0.237067 0.38947,0.1524 0.7112,0.364066 0.32173,0.2032 0.56727,0.448734 z"
         style="font-style:normal;font-variant:normal;font-weight:900;font-stretch:normal;font-size:16.93333244px;font-family:Lato;-inkscape-font-specification:'Lato Heavy';text-align:center;letter-spacing:0px;text-anchor:middle;fill:#ffffff;stroke-width:0.26458332"
         id="path1009"
         inkscape:connector-curvature="0" />
      <path
         d="m 132.35246,83.578918 q -0.62654,0 -1.10914,-0.1778 -0.47413,-0.186267 -0.80433,-0.516467 -0.32173,-0.338667 -0.49107,-0.8128 -0.16933,-0.474133 -0.16933,-1.058333 v -4.538133 h -0.74507 q -0.2032,0 -0.34713,-0.127 -0.14393,-0.135467 -0.14393,-0.389467 v -1.024467 l 1.397,-0.270933 0.51646,-2.142066 q 0.1016,-0.4064 0.57574,-0.4064 h 1.3716 v 2.565399 h 2.1336 v 1.794934 h -2.1336 v 4.360333 q 0,0.3048 0.14393,0.508 0.1524,0.194733 0.4318,0.194733 0.14393,0 0.23707,-0.0254 0.1016,-0.03387 0.16933,-0.06773 0.0762,-0.04233 0.13547,-0.06773 0.0677,-0.03387 0.1524,-0.03387 0.11853,0 0.18626,0.05927 0.0762,0.0508 0.1524,0.169334 l 0.79587,1.2446 q -0.508,0.381 -1.143,0.575733 -0.635,0.186267 -1.31233,0.186267 z"
         style="font-style:normal;font-variant:normal;font-weight:900;font-stretch:normal;font-size:16.93333244px;font-family:Lato;-inkscape-font-specification:'Lato Heavy';text-align:center;letter-spacing:0px;text-anchor:middle;fill:#ffffff;stroke-width:0.26458332"
         id="path1011"
         inkscape:connector-curvature="0" />
      <path
         d="m 142.11267,83.443451 q -0.37253,0 -0.56726,-0.1016 -0.18627,-0.1016 -0.31327,-0.423333 l -0.18627,-0.4826 q -0.3302,0.2794 -0.635,0.491066 -0.3048,0.211667 -0.635,0.364067 -0.32173,0.143933 -0.69426,0.211667 -0.36407,0.0762 -0.8128,0.0762 -0.60114,0 -1.0922,-0.1524 -0.49107,-0.160867 -0.8382,-0.465667 -0.33867,-0.3048 -0.52494,-0.753533 -0.18626,-0.4572 -0.18626,-1.049867 0,-0.465667 0.23706,-0.956733 0.23707,-0.491067 0.82127,-0.889 0.5842,-0.4064 1.5748,-0.677333 0.9906,-0.270934 2.49767,-0.3048 v -0.372534 q 0,-0.770466 -0.32174,-1.109133 -0.31326,-0.347133 -0.89746,-0.347133 -0.46567,0 -0.762,0.1016 -0.29634,0.1016 -0.5334,0.2286 -0.2286,0.127 -0.44874,0.2286 -0.22013,0.1016 -0.52493,0.1016 -0.27093,0 -0.46567,-0.127 -0.18626,-0.135467 -0.29633,-0.3302 l -0.47413,-0.821267 q 0.79586,-0.702733 1.76106,-1.0414 0.97367,-0.347133 2.0828,-0.347133 0.79587,0 1.43087,0.262466 0.64347,0.254 1.08373,0.719667 0.44874,0.4572 0.6858,1.0922 0.23707,0.635 0.23707,1.388533 v 5.4864 z m -3.01413,-1.6002 q 0.508,0 0.889,-0.1778 0.381,-0.1778 0.77047,-0.575733 v -1.2192 q -0.7874,0.03387 -1.2954,0.135466 -0.508,0.1016 -0.80434,0.254 -0.29633,0.1524 -0.41486,0.347134 -0.11007,0.194733 -0.11007,0.423333 0,0.448733 0.24553,0.635 0.24554,0.1778 0.71967,0.1778 z m 4.04707,-10.871199 -2.20134,2.226733 q -0.19473,0.194733 -0.37253,0.2794 -0.1778,0.0762 -0.47413,0.0762 h -1.5748 l 1.15146,-2.074333 q 0.14394,-0.245534 0.33867,-0.372534 0.19473,-0.135466 0.59267,-0.135466 z"
         style="font-style:normal;font-variant:normal;font-weight:900;font-stretch:normal;font-size:16.93333244px;font-family:Lato;-inkscape-font-specification:'Lato Heavy';text-align:center;letter-spacing:0px;text-anchor:middle;fill:#ffffff;stroke-width:0.26458332"
         id="path1013"
         inkscape:connector-curvature="0" />
      <path
         d="m 148.27746,74.511118 q 0.5588,0 1.04987,0.110067 0.49953,0.110066 0.92287,0.313266 h 2.65006 v 0.956734 q 0,0.220133 -0.127,0.347133 -0.11853,0.127 -0.41486,0.194733 l -0.64347,0.143934 q 0.11853,0.381 0.11853,0.7874 0,0.6604 -0.2794,1.185333 -0.27093,0.524933 -0.75353,0.897466 -0.47413,0.364067 -1.12607,0.567267 -0.65193,0.194733 -1.397,0.194733 -0.41486,0 -0.77893,-0.0508 -0.28787,0.169334 -0.28787,0.389467 0,0.220133 0.2286,0.321733 0.23707,0.09313 0.61807,0.135467 0.381,0.03387 0.87207,0.0508 0.49106,0.0085 0.99906,0.05927 0.508,0.04233 0.99907,0.1524 0.49107,0.110066 0.87207,0.3556 0.381,0.245533 0.6096,0.6604 0.23706,0.4064 0.23706,1.0414 0,0.592666 -0.28786,1.159933 -0.28787,0.567267 -0.84667,1.007533 -0.5588,0.440267 -1.3716,0.702733 -0.8128,0.270934 -1.86267,0.270934 -1.03293,0 -1.78646,-0.194734 -0.74507,-0.194733 -1.2446,-0.516466 -0.49107,-0.313267 -0.72814,-0.728133 -0.23706,-0.414867 -0.23706,-0.8636 0,-0.5842 0.3556,-0.982134 0.3556,-0.4064 0.97366,-0.635 -0.29633,-0.194733 -0.47413,-0.499533 -0.1778,-0.3048 -0.1778,-0.770467 0,-0.194733 0.0677,-0.4064 0.0677,-0.220133 0.21167,-0.423333 0.14393,-0.2032 0.36407,-0.389467 0.22013,-0.186266 0.52493,-0.3302 -0.6858,-0.364066 -1.08373,-0.965199 -0.38947,-0.601134 -0.38947,-1.397 0,-0.6604 0.2794,-1.185334 0.2794,-0.5334 0.762,-0.897466 0.49107,-0.372534 1.15147,-0.567267 0.6604,-0.2032 1.43086,-0.2032 z m 1.94734,9.254066 q 0,-0.211666 -0.13547,-0.338666 -0.127,-0.127 -0.3556,-0.2032 -0.22013,-0.0762 -0.52493,-0.110067 -0.29634,-0.03387 -0.64347,-0.0508 -0.34713,-0.01693 -0.71967,-0.0254 -0.37253,-0.01693 -0.7366,-0.05927 -0.24553,0.169334 -0.4064,0.381 -0.1524,0.2032 -0.1524,0.465667 0,0.186267 0.0762,0.338667 0.0847,0.1524 0.28787,0.262466 0.2032,0.110067 0.54187,0.169334 0.34713,0.06773 0.87206,0.06773 0.56727,0 0.93134,-0.06773 0.36406,-0.06773 0.57573,-0.186267 0.22013,-0.118533 0.3048,-0.287867 0.0847,-0.160866 0.0847,-0.3556 z m -1.94734,-5.173133 q 0.65194,0 0.9398,-0.321733 0.29634,-0.3302 0.29634,-0.846667 0,-0.5334 -0.29634,-0.8382 -0.28786,-0.3048 -0.9398,-0.3048 -0.65193,0 -0.94826,0.3048 -0.28787,0.3048 -0.28787,0.8382 0,0.254 0.0677,0.465667 0.0762,0.211667 0.2286,0.372533 0.1524,0.1524 0.381,0.245534 0.23707,0.08467 0.5588,0.08467 z"
         style="font-style:normal;font-variant:normal;font-weight:900;font-stretch:normal;font-size:16.93333244px;font-family:Lato;-inkscape-font-specification:'Lato Heavy';text-align:center;letter-spacing:0px;text-anchor:middle;fill:#ffffff;stroke-width:0.26458332"
         id="path1015"
         inkscape:connector-curvature="0" />
      <path
         d="m 156.75154,74.663518 v 8.779933 h -2.62467 v -8.779933 z m 0.3048,-2.404533 q 0,0.313266 -0.127,0.592666 -0.127,0.270934 -0.34714,0.4826 -0.22013,0.2032 -0.51646,0.3302 -0.28787,0.118534 -0.61807,0.118534 -0.32173,0 -0.60113,-0.118534 -0.2794,-0.127 -0.49954,-0.3302 -0.21166,-0.211666 -0.33866,-0.4826 -0.11854,-0.2794 -0.11854,-0.592666 0,-0.321733 0.11854,-0.601133 0.127,-0.2794 0.33866,-0.491067 0.22014,-0.211667 0.49954,-0.3302 0.2794,-0.118533 0.60113,-0.118533 0.3302,0 0.61807,0.118533 0.29633,0.118533 0.51646,0.3302 0.22014,0.211667 0.34714,0.491067 0.127,0.2794 0.127,0.601133 z"
         style="font-style:normal;font-variant:normal;font-weight:900;font-stretch:normal;font-size:16.93333244px;font-family:Lato;-inkscape-font-specification:'Lato Heavy';text-align:center;letter-spacing:0px;text-anchor:middle;fill:#ffffff;stroke-width:0.26458332"
         id="path1017"
         inkscape:connector-curvature="0" />
      <path
         d="m 162.78245,74.528051 q 0.99907,0 1.82033,0.313267 0.82127,0.313267 1.40547,0.897467 0.59267,0.5842 0.9144,1.4224 0.3302,0.829733 0.3302,1.871133 0,1.049866 -0.3302,1.896533 -0.32173,0.8382 -0.9144,1.430867 -0.5842,0.5842 -1.40547,0.905933 -0.82126,0.313267 -1.82033,0.313267 -1.00753,0 -1.83727,-0.313267 -0.82126,-0.321733 -1.4224,-0.905933 -0.59266,-0.592667 -0.92286,-1.430867 -0.32174,-0.846667 -0.32174,-1.896533 0,-1.0414 0.32174,-1.871133 0.3302,-0.8382 0.92286,-1.4224 0.60114,-0.5842 1.4224,-0.897467 0.82974,-0.313267 1.83727,-0.313267 z m 0,7.103533 q 0.90593,0 1.32927,-0.635 0.4318,-0.643466 0.4318,-1.947333 0,-1.303866 -0.4318,-1.938866 -0.42334,-0.635 -1.32927,-0.635 -0.93133,0 -1.36313,0.635 -0.4318,0.635 -0.4318,1.938866 0,1.303867 0.4318,1.947333 0.4318,0.635 1.36313,0.635 z"
         style="font-style:normal;font-variant:normal;font-weight:900;font-stretch:normal;font-size:16.93333244px;font-family:Lato;-inkscape-font-specification:'Lato Heavy';text-align:center;letter-spacing:0px;text-anchor:middle;fill:#ffffff;stroke-width:0.26458332"
         id="path1019"
         inkscape:connector-curvature="0" />
      <path
         d="m 174.06137,76.585451 q -0.1016,0.160867 -0.22013,0.2286 -0.11007,0.06773 -0.28787,0.06773 -0.18626,0 -0.37253,-0.0762 -0.18627,-0.08467 -0.4064,-0.1778 -0.21167,-0.09313 -0.4826,-0.169334 -0.27093,-0.08467 -0.61807,-0.08467 -0.49953,0 -0.77046,0.194733 -0.26247,0.186267 -0.26247,0.524933 0,0.245534 0.16933,0.4064 0.1778,0.160867 0.46567,0.287867 0.28787,0.118533 0.65193,0.2286 0.36407,0.110067 0.74507,0.245533 0.381,0.135467 0.74507,0.321734 0.36406,0.1778 0.65193,0.448733 0.28787,0.262466 0.4572,0.643466 0.1778,0.381 0.1778,0.9144 0,0.651934 -0.23707,1.202267 -0.23706,0.550333 -0.7112,0.948267 -0.46566,0.397933 -1.15993,0.618066 -0.6858,0.220134 -1.58327,0.220134 -0.44873,0 -0.89746,-0.08467 -0.44874,-0.08467 -0.87207,-0.2286 -0.41487,-0.143933 -0.77047,-0.338667 -0.3556,-0.2032 -0.6096,-0.4318 l 0.6096,-0.9652 q 0.11007,-0.169333 0.26247,-0.262466 0.1524,-0.1016 0.39793,-0.1016 0.2286,0 0.4064,0.1016 0.18627,0.1016 0.39794,0.220133 0.21166,0.118533 0.49106,0.220133 0.28787,0.1016 0.71967,0.1016 0.3048,0 0.51647,-0.05927 0.21166,-0.06773 0.33866,-0.1778 0.127,-0.110067 0.18627,-0.245534 0.0593,-0.135466 0.0593,-0.2794 0,-0.262466 -0.1778,-0.4318 -0.1778,-0.169333 -0.46567,-0.287866 -0.28787,-0.127 -0.6604,-0.2286 -0.36407,-0.110067 -0.74507,-0.245534 -0.381,-0.135466 -0.75353,-0.321733 -0.36407,-0.194733 -0.65193,-0.4826 -0.28787,-0.296333 -0.46567,-0.719666 -0.1778,-0.423334 -0.1778,-1.024467 0,-0.5588 0.21167,-1.058333 0.22013,-0.508 0.65193,-0.889 0.4318,-0.381 1.08373,-0.601134 0.65194,-0.2286 1.524,-0.2286 0.47414,0 0.9144,0.08467 0.44874,0.08467 0.8382,0.237067 0.38947,0.1524 0.7112,0.364066 0.32174,0.2032 0.56727,0.448734 z"
         style="font-style:normal;font-variant:normal;font-weight:900;font-stretch:normal;font-size:16.93333244px;font-family:Lato;-inkscape-font-specification:'Lato Heavy';text-align:center;letter-spacing:0px;text-anchor:middle;fill:#ffffff;stroke-width:0.26458332"
         id="path1021"
         inkscape:connector-curvature="0" />
    </g>
    <path
       style="fill:none;stroke:#ffffff;stroke-width:2.16499996;stroke-linecap:butt;stroke-linejoin:miter;stroke-miterlimit:4;stroke-dasharray:none;stroke-opacity:1"
       d="m 13.953949,94.186931 c 0,0 9.028476,5.957459 4.950305,23.685269"
       id="path896-6"
       inkscape:connector-curvature="0"
       sodipodi:nodetypes="cc" />
    <path
       style="fill:none;stroke:#ffffff;stroke-width:2.16499996;stroke-linecap:butt;stroke-linejoin:miter;stroke-miterlimit:4;stroke-dasharray:none;stroke-opacity:1"
       d="m 19.652128,106.05998 c 0,0 3.447571,-8.013169 12.106292,-9.749506"
       id="path898-1"
       inkscape:connector-curvature="0"
       sodipodi:nodetypes="cc" />
    <path
       style="fill:none;stroke:#ffffff;stroke-width:2.16499996;stroke-linecap:butt;stroke-linejoin:miter;stroke-miterlimit:4;stroke-dasharray:none;stroke-opacity:1"
       d="m 32.633071,105.01967 c -1.169304,-1.97112 -7.506368,-3.41896 -8.70908,5.33411 -1.202714,8.75308 6.34765,6.34765 6.34765,6.34765 2.204974,-0.63476 5.324218,-5.38965 2.36143,-11.68176 z"
       id="path900-14"
       inkscape:connector-curvature="0"
       sodipodi:nodetypes="cscc" />
    <path
       style="fill:none;stroke:#ffffff;stroke-width:2.16499996;stroke-linecap:butt;stroke-linejoin:miter;stroke-miterlimit:4;stroke-dasharray:none;stroke-opacity:1"
       d="m 33.679327,111.72354 c 0,0 0.103858,5.12938 6.265948,4.65273"
       id="path902-0"
       inkscape:connector-curvature="0"
       sodipodi:nodetypes="cc" />
    <path
       style="fill:none;stroke:#ffffff;stroke-width:2.16499996;stroke-linecap:butt;stroke-linejoin:miter;stroke-miterlimit:4;stroke-dasharray:none;stroke-opacity:1"
       d="m 46.547047,104.73038 c 0,0 -8.185131,1.5368 -6.080382,4.57699 0.634765,1.70384 5.044713,-1.10249 7.182869,2.90656 2.071338,6.21401 -6.250395,4.16235 -6.250395,4.16235"
       id="path904-7"
       inkscape:connector-curvature="0"
       sodipodi:nodetypes="cccc" />
    <path
       style="fill:none;stroke:#ffffff;stroke-width:2.16499996;stroke-linecap:butt;stroke-linejoin:miter;stroke-miterlimit:4;stroke-dasharray:none;stroke-opacity:1"
       d="m 51.604478,117.79224 c 0,0 -0.359722,-19.264301 3.231052,-23.280297"
       id="path906-15"
       inkscape:connector-curvature="0" />
    <path
       style="fill:none;stroke:#ffffff;stroke-width:2.16499996;stroke-linecap:butt;stroke-linejoin:miter;stroke-miterlimit:4;stroke-dasharray:none;stroke-opacity:1"
       d="m 48.166591,102.3174 c 0,0 5.458338,-0.50075 7.834526,-0.10657"
       id="path908-7"
       inkscape:connector-curvature="0"
       sodipodi:nodetypes="cc" />
    <path
       style="fill:none;stroke:#ffffff;stroke-width:2.16499996;stroke-linecap:butt;stroke-linejoin:miter;stroke-miterlimit:4;stroke-dasharray:none;stroke-opacity:1"
       d="m 64.061651,104.77193 c -1.169304,-1.97111 -7.506369,-3.41896 -8.70908,5.33412 -1.202714,8.75307 6.34765,6.34765 6.34765,6.34765 2.204974,-0.63477 5.324216,-5.38966 2.36143,-11.68177 z"
       id="path900-1-3"
       inkscape:connector-curvature="0"
       sodipodi:nodetypes="cscc" />
    <path
       style="fill:none;stroke:#ffffff;stroke-width:2.16499996;stroke-linecap:butt;stroke-linejoin:miter;stroke-miterlimit:4;stroke-dasharray:none;stroke-opacity:1"
       d="m 65.107906,111.4758 c 0,0 0.103857,5.12939 6.265948,4.65274"
       id="path902-7-9"
       inkscape:connector-curvature="0"
       sodipodi:nodetypes="cc" />
    <circle
       style="opacity:1;fill:none;fill-opacity:1;stroke:#ffffff;stroke-width:2.16499996;stroke-linecap:round;stroke-linejoin:miter;stroke-miterlimit:4;stroke-dasharray:none;stroke-opacity:1;paint-order:stroke markers fill"
       id="path932-2"
       cx="75.501633"
       cy="115.97182"
       r="1.5283448" />
  </g>
</svg>
