<?xml version="1.0" encoding="UTF-8" standalone="no"?>
<!-- Created with Inkscape (http://www.inkscape.org/) -->

<svg
   xmlns:dc="http://purl.org/dc/elements/1.1/"
   xmlns:cc="http://creativecommons.org/ns#"
   xmlns:rdf="http://www.w3.org/1999/02/22-rdf-syntax-ns#"
   xmlns:svg="http://www.w3.org/2000/svg"
   xmlns="http://www.w3.org/2000/svg"
   xmlns:sodipodi="http://sodipodi.sourceforge.net/DTD/sodipodi-0.dtd"
   xmlns:inkscape="http://www.inkscape.org/namespaces/inkscape"
   id="svg5999"
   sodipodi:docname="user.svg"
   viewBox="0 0 744.09 1052.4"
   version="1.1"
   inkscape:version="0.92.3 (2405546, 2018-03-11)">
  <defs
     id="defs6001" />
  <sodipodi:namedview
     id="base"
     bordercolor="#666666"
     inkscape:pageshadow="2"
     inkscape:window-y="-8"
     pagecolor="#ffffff"
     inkscape:window-height="1017"
     inkscape:window-maximized="1"
     inkscape:zoom="0.58915079"
     inkscape:window-x="-8"
     showgrid="false"
     borderopacity="1.0"
     inkscape:current-layer="layer1"
     inkscape:cx="-90.883019"
     inkscape:cy="316.04915"
     inkscape:window-width="1920"
     inkscape:pageopacity="0.0"
     inkscape:document-units="px" />
  <g
     id="layer1"
     inkscape:label="Layer 1"
     inkscape:groupmode="layer">
    <path
       style="fill:#000000;stroke:#000000"
       d="M 357.24609 203.87305 L 320.32422 213.96289 C 320.32422 213.96289 290.97478 224.54179 278.88086 232.53906 C 266.78694 240.53633 250.02662 253.0848 241.02539 263.08984 C 232.02416 273.09488 224.52276 282.76244 218.95898 291.94531 C 213.3952 301.12818 212.05409 305.29487 207.07812 317.40625 C 202.10216 329.51763 195.73511 347.05658 192.50781 362.5293 C 188.51238 381.68467 186.70898 420.94531 186.70898 420.94531 L 188.40625 441.3125 L 190.10352 449.80078 C 190.10352 449.80078 186.3705 448.13341 181.61719 449.80078 C 176.86388 451.46815 168.7778 456.58757 164.64453 463.37891 C 160.51126 470.17025 160.44756 477.46974 159.55078 488.83984 C 158.654 500.20994 162.00648 519.11213 166.85547 531.27344 C 171.70445 543.43475 175.38219 546.55412 180.20508 552.82422 C 185.02797 559.09432 188.94917 565.31092 195.38672 568.90039 C 199.87094 571.40072 210.47266 572.00977 210.47266 572.00977 C 210.47266 572.00977 217.43435 592.52609 224.05078 605.95703 C 230.66721 619.38797 233.10068 621.89481 238.39258 629.35742 C 247.57195 642.3021 256.86309 655.43886 268.46875 666.26172 C 268.84512 666.6127 269.23554 666.9491 269.61719 667.29492 C 269.11499 670.91496 268.67067 674.56655 267.70898 677.79883 C 265.38358 685.61483 264.25738 693.78648 261.48438 701.45508 C 259.14808 707.91608 256.90718 714.64961 252.76758 720.13281 C 247.80358 726.70791 241.11344 732.01421 234.08984 736.32031 C 221.86784 743.81321 207.85009 747.98441 194.24609 752.50781 C 177.14609 758.19401 159.19822 760.98762 141.94922 766.20312 C 128.50622 770.26812 114.98952 774.31499 102.10352 779.90039 C 94.778516 783.07499 87.511847 786.58062 80.935547 791.10742 C 70.032547 798.61242 59.241681 806.85786 51.050781 817.25586 C 38.872781 832.71486 31.464103 851.48773 23.658203 869.55273 C 19.128903 880.03573 15.489672 890.91778 12.451172 901.92578 C 9.7439574 911.73311 -3.9464221 931.8008 6.2246094 931.81055 L 6.2265625 931.81055 C 312.54533 932.02353 489.44411 928.62554 724.68359 935.54492 C 733.48409 935.80392 722.70132 918.02694 720.94922 909.39844 C 718.04472 895.09344 715.24059 880.5855 709.74219 867.0625 C 702.74119 849.8465 693.43761 833.41695 682.34961 818.50195 C 673.76761 806.95895 664.46384 795.30595 652.46484 787.37305 C 641.72584 780.27305 628.58847 777.68548 616.35547 773.67578 C 601.61947 768.84508 586.3003 765.94486 571.5293 761.22266 C 557.4303 756.71466 543.3022 752.11058 529.7832 746.08398 C 516.9562 740.36598 502.726 735.98572 492.625 726.22852 C 483.8532 717.75552 478.86209 705.87422 474.27539 694.57422 C 469.399 682.56015 469.43261 676.83023 464.94141 657.54492 C 471.65306 651.1457 476.66691 645.50191 482.04883 638.20703 C 489.07036 628.68976 489.52505 624.47076 500.01562 606.85352 C 510.50619 589.23627 514.91016 572.81055 514.91016 572.81055 C 514.91016 572.81055 522.45446 574.83048 530.0918 572.00977 C 537.72913 569.18906 546.14852 560.19333 552.63281 552.72852 C 557.75378 546.83319 565.2207 532.9707 565.2207 532.9707 C 565.2207 532.9707 574.59569 509.17923 575.4043 499.02344 C 576.21291 488.86765 574.83667 481.64426 572.00977 473.5625 C 569.83125 467.33438 566.10329 460.55058 561.82617 456.58984 C 557.54905 452.6291 548.24609 449.80078 548.24609 449.80078 L 548.05664 421.74609 C 548.05664 421.74609 547.00018 384.57151 544.85156 368.32617 C 542.70294 352.08083 539.01427 337.91747 532.9707 324.19531 C 526.92713 310.47315 509.20703 286.85352 509.20703 286.85352 C 509.20703 286.85352 482.29652 261.20581 470.16797 252.90625 C 458.03942 244.60669 449.32175 240.21443 437.91797 235.93359 C 426.51419 231.65275 402.27344 227.44531 402.27344 227.44531 C 402.27344 227.44531 382.52353 224.74866 372.60547 225.02734 C 362.60161 225.30843 342.86719 229.14258 342.86719 229.14258 L 357.24609 203.87305 z "
       id="path6593" />
  </g>
  <metadata
     id="metadata16">
    <rdf:RDF>
      <cc:Work>
        <dc:format>image/svg+xml</dc:format>
        <dc:type
           rdf:resource="http://purl.org/dc/dcmitype/StillImage" />
        <cc:license
           rdf:resource="http://creativecommons.org/licenses/publicdomain/" />
        <dc:publisher>
          <cc:Agent
             rdf:about="http://openclipart.org/">
            <dc:title>Openclipart</dc:title>
          </cc:Agent>
        </dc:publisher>
      </cc:Work>
      <cc:License
         rdf:about="http://creativecommons.org/licenses/publicdomain/">
        <cc:permits
           rdf:resource="http://creativecommons.org/ns#Reproduction" />
        <cc:permits
           rdf:resource="http://creativecommons.org/ns#Distribution" />
        <cc:permits
           rdf:resource="http://creativecommons.org/ns#DerivativeWorks" />
      </cc:License>
    </rdf:RDF>
  </metadata>
</svg>
